<svg xmlns="http://www.w3.org/2000/svg" viewBox="0 0 360 260" role="img" aria-labelledby="title desc">
  <title id="title">Inside Out style character illustration</title>
  <desc id="desc">A friendly cartoon emotion icon composed of colorful shapes.</desc>
  <defs>
    <linearGradient id="gradBlue" x1="0%" y1="0%" x2="100%" y2="100%">
      <stop offset="0%" stop-color="#93c5fd" />
      <stop offset="100%" stop-color="#3b82f6" />
    </linearGradient>
    <linearGradient id="gradPink" x1="0%" y1="0%" x2="100%" y2="100%">
      <stop offset="0%" stop-color="#f9a8d4" />
      <stop offset="100%" stop-color="#fb7185" />
    </linearGradient>
  </defs>
  <rect width="360" height="260" rx="24" ry="24" fill="#eff6ff" />
  <circle cx="180" cy="130" r="84" fill="url(#gradBlue)" opacity="0.95" />
  <ellipse cx="140" cy="118" rx="18" ry="24" fill="#ffffff" />
  <ellipse cx="220" cy="118" rx="18" ry="24" fill="#ffffff" />
  <circle cx="140" cy="118" r="8" fill="#0f172a" />
  <circle cx="220" cy="118" r="8" fill="#0f172a" />
  <path d="M128 176 C150 196 210 196 232 176" stroke="#0f172a" stroke-width="10" fill="none" stroke-linecap="round" />
  <path d="M80 58 C108 28 132 22 170 42 C206 20 234 26 262 56 C290 86 296 128 272 154" stroke="url(#gradPink)" stroke-width="22" fill="none" stroke-linecap="round" opacity="0.9" />
  <circle cx="70" cy="190" r="20" fill="#fde047" opacity="0.9" />
  <circle cx="292" cy="210" r="18" fill="#a78bfa" opacity="0.9" />
  <circle cx="302" cy="82" r="12" fill="#f97316" opacity="0.9" />
</svg>
